<?xml version="1.0" standalone="no"?>
<!DOCTYPE svg PUBLIC "-//W3C//DTD SVG 20010904//EN"
 "http://www.w3.org/TR/2001/REC-SVG-20010904/DTD/svg10.dtd">
<svg version="1.0" xmlns="http://www.w3.org/2000/svg"
 width="512.000000pt" height="512.000000pt" viewBox="0 0 512.000000 512.000000"
 preserveAspectRatio="xMidYMid meet">

<g transform="translate(0.000000,512.000000) scale(0.100000,-0.100000)"
fill="#000000" stroke="none">
<path d="M320 4547 c-49 -16 -133 -102 -148 -153 -17 -60 -17 -2968 0 -3028
16 -55 99 -138 154 -154 32 -9 542 -12 2236 -12 2475 0 2252 -8 2331 80 24 26
49 66 55 88 17 57 17 2967 0 3024 -6 22 -31 62 -55 88 -79 88 145 80 -2337 79
-1574 -1 -2211 -4 -2236 -12z m4154 -319 c55 -16 138 -99 154 -154 17 -60 17
-2008 0 -2068 -16 -55 -99 -138 -154 -154 -60 -18 -3768 -18 -3828 0 -55 16
-138 99 -154 154 -17 60 -17 2008 0 2068 15 51 99 137 148 153 53 17 3777 17
3834 1z"/>
<path d="M1845 883 c-110 -144 -123 -158 -159 -165 -88 -18 -142 -78 -153
-167 -12 -101 42 -197 125 -221 26 -8 307 -10 923 -8 l885 3 41 27 c48 31 75
84 81 155 4 43 -1 63 -22 107 -29 60 -68 91 -132 104 -36 7 -49 21 -159 165
l-120 156 -595 0 -595 0 -120 -156z"/>
</g>
</svg>
