<?xml version="1.0" standalone="no"?>
<!DOCTYPE svg PUBLIC "-//W3C//DTD SVG 20010904//EN"
 "http://www.w3.org/TR/2001/REC-SVG-20010904/DTD/svg10.dtd">
<svg version="1.0" xmlns="http://www.w3.org/2000/svg"
 width="512.000000pt" height="512.000000pt" viewBox="0 0 512.000000 512.000000"
 preserveAspectRatio="xMidYMid meet">

<g transform="translate(0.000000,512.000000) scale(0.100000,-0.100000)"
fill="#000000" stroke="none">
<path d="M273 4574 c-67 -33 -63 54 -63 -1374 0 -1432 -4 -1341 65 -1374 28
-13 78 -16 304 -16 l271 0 0 404 0 403 -75 62 c-174 143 -299 360 -335 584
-19 117 -8 301 24 412 96 324 335 563 662 661 126 37 318 44 454 16 611 -126
944 -803 667 -1357 -64 -129 -176 -266 -279 -342 l-48 -35 0 -404 0 -404 1446
0 c1296 0 1449 2 1479 16 69 33 65 -58 65 1374 0 1432 4 1341 -65 1374 -30 14
-255 16 -2287 16 -2025 0 -2256 -2 -2285 -16z m2573 -445 c50 -46 37 -141 -22
-168 -97 -44 -187 45 -143 142 26 58 116 72 165 26z m405 15 c93 -48 55 -194
-50 -194 -104 0 -146 137 -57 191 38 23 67 24 107 3z m429 -1 c86 -51 54 -193
-44 -193 -49 0 -81 17 -101 55 -50 92 54 192 145 138z m446 -14 c50 -46 37
-141 -22 -168 -97 -44 -187 45 -143 142 26 58 116 72 165 26z m405 15 c93 -48
55 -194 -50 -194 -104 0 -146 137 -57 191 38 23 67 24 107 3z m-1708 -425 c59
-27 73 -116 26 -165 -47 -50 -141 -37 -168 22 -44 98 45 187 142 143z m440 -9
c38 -30 52 -80 33 -123 -15 -37 -59 -67 -96 -67 -37 0 -81 30 -96 67 -29 68
21 143 96 143 22 0 48 -8 63 -20z m438 -9 c49 -50 36 -133 -26 -166 -63 -35
-140 4 -152 78 -15 97 108 158 178 88z m402 18 c59 -27 73 -116 26 -165 -47
-50 -141 -37 -168 22 -44 98 45 187 142 143z m440 -9 c38 -30 52 -80 33 -123
-15 -37 -59 -67 -96 -67 -37 0 -81 30 -96 67 -29 68 21 143 96 143 22 0 48 -8
63 -20z m-1728 -414 c35 -15 65 -59 65 -96 0 -67 -72 -121 -136 -100 -94 31
-101 156 -10 196 39 17 40 17 81 0z m430 -2 c31 -14 65 -64 65 -94 0 -7 -7
-27 -16 -45 -19 -41 -73 -69 -114 -60 -37 8 -77 48 -85 85 -9 40 19 95 58 114
40 20 51 20 92 0z m419 2 c93 -39 87 -164 -8 -196 -64 -21 -136 33 -136 100 0
36 30 81 63 95 40 18 41 18 81 1z m431 0 c35 -15 65 -59 65 -96 0 -67 -72
-121 -136 -100 -94 31 -101 156 -10 196 39 17 40 17 81 0z m430 -2 c31 -14 65
-64 65 -94 0 -7 -7 -27 -16 -45 -19 -41 -73 -69 -114 -60 -37 8 -77 48 -85 85
-9 40 19 95 58 114 40 20 51 20 92 0z m-1679 -445 c50 -46 37 -141 -22 -168
-97 -44 -187 45 -143 142 26 58 116 72 165 26z m405 15 c93 -48 55 -194 -50
-194 -104 0 -146 137 -57 191 38 23 67 24 107 3z m429 -1 c86 -51 54 -193 -44
-193 -49 0 -81 17 -101 55 -50 92 54 192 145 138z m446 -14 c50 -46 37 -141
-22 -168 -97 -44 -187 45 -143 142 26 58 116 72 165 26z m405 15 c93 -48 55
-194 -50 -194 -104 0 -146 137 -57 191 38 23 67 24 107 3z m-1708 -425 c59
-27 73 -116 26 -165 -47 -50 -141 -37 -168 22 -44 98 45 187 142 143z m440 -9
c38 -30 52 -80 33 -123 -15 -37 -59 -67 -96 -67 -37 0 -81 30 -96 67 -29 68
21 143 96 143 22 0 48 -8 63 -20z m438 -9 c49 -50 36 -133 -26 -166 -63 -35
-140 4 -152 78 -15 97 108 158 178 88z m402 18 c59 -27 73 -116 26 -165 -47
-50 -141 -37 -168 22 -44 98 45 187 142 143z m440 -9 c38 -30 52 -80 33 -123
-15 -37 -59 -67 -96 -67 -37 0 -81 30 -96 67 -29 68 21 143 96 143 22 0 48 -8
63 -20z"/>
<path d="M1240 4146 c-144 -30 -275 -102 -380 -207 -265 -265 -292 -677 -64
-979 l49 -64 6 304 c6 332 10 356 71 472 51 97 167 197 275 238 141 53 283 46
418 -19 133 -64 220 -159 274 -301 24 -63 25 -75 31 -380 l5 -315 48 60 c62
79 112 182 138 286 18 70 21 102 16 204 -3 70 -12 143 -22 175 -76 246 -264
433 -510 510 -90 27 -262 35 -355 16z"/>
<path d="M1235 3693 c-52 -27 -106 -86 -136 -148 l-29 -60 0 -941 c0 -789 2
-955 15 -1027 65 -373 336 -690 699 -816 169 -60 192 -61 1059 -61 l787 0 0
105 0 104 -812 3 c-798 4 -814 4 -890 25 -206 58 -385 183 -497 346 -43 64
-104 196 -127 277 -17 61 -19 131 -22 1138 -1 589 -6 1072 -10 1072 -4 -1 -20
-8 -37 -17z"/>
<path d="M1490 2698 c0 -643 4 -1037 10 -1078 17 -103 48 -186 102 -265 64
-96 143 -167 243 -216 147 -72 109 -69 992 -69 l793 0 0 105 0 105 -773 0
c-842 0 -839 0 -937 57 -68 40 -133 112 -171 188 l-34 70 -5 945 c-6 1041 -1
967 -66 1062 -26 37 -119 108 -142 108 -9 0 -12 -213 -12 -1012z"/>
<path d="M3905 1591 c-11 -5 -29 -19 -40 -31 -20 -22 -20 -36 -20 -601 l0
-579 28 -27 27 -28 193 -3 c210 -4 242 3 266 54 15 34 16 1133 0 1167 -23 51
-51 57 -251 56 -100 0 -192 -4 -203 -8z"/>
<path d="M4590 960 l0 -530 123 0 c137 0 159 8 183 66 21 49 21 879 0 928 -24
58 -46 66 -183 66 l-123 0 0 -530z"/>
</g>
</svg>
