<svg version="1.1" id="Layer_1" xmlns="http://www.w3.org/2000/svg" xmlns:xlink="http://www.w3.org/1999/xlink" x="0px" y="0px"
	 width="100%" viewBox="0 0 512 512" enable-background="new 0 0 512 512" xml:space="preserve">
<path fill="#000000" opacity="1.000000" stroke="none" 
	d="
M1.000000,353.416656 
	C8.467882,347.080658 14.766394,339.940247 21.473913,333.238495 
	C108.797226,245.989899 196.068115,158.688858 283.353760,71.402573 
	C305.851196,48.904968 328.356018,26.414736 350.845093,3.908736 
	C351.542511,3.210780 352.101837,2.374859 352.862793,1.301623 
	C354.388885,1.000000 355.777802,1.000000 357.583344,0.999996 
	C367.310150,10.508772 376.518250,20.120949 385.988464,29.467546 
	C389.098450,32.536880 390.521545,35.022762 388.885956,39.764999 
	C385.229919,50.365658 389.302246,59.203228 397.086243,66.601784 
	C404.378815,73.533218 412.995850,75.341187 422.443573,72.423180 
	C426.009247,71.321892 428.540527,71.854256 430.869873,74.570335 
	C431.843414,75.705482 432.900940,76.791679 434.042023,77.756142 
	C439.870972,82.683174 442.853333,87.419380 440.854675,96.407471 
	C436.903320,114.176842 457.686157,131.800354 475.046326,125.046791 
	C479.170135,123.442505 485.326660,126.768707 486.862976,130.989120 
	C487.718658,133.339752 485.762665,134.292175 484.557037,135.501373 
	C467.614929,152.494080 450.624847,169.438980 433.662689,186.411728 
	C367.352020,252.763885 301.052399,319.127136 234.737747,385.475342 
	C201.638657,418.591217 168.489349,451.657043 135.453720,484.836090 
	C132.774673,487.526733 131.034454,487.396057 128.503632,484.796326 
	C125.365334,481.572632 123.552467,478.991089 125.165092,473.669922 
	C130.953171,454.571198 112.473267,436.123047 93.114326,441.332489 
	C88.509590,442.571655 85.049751,442.135376 82.113029,438.341919 
	C81.405060,437.427429 80.517166,436.638672 79.646599,435.865753 
	C74.306351,431.124451 71.323265,426.869507 73.095924,418.137512 
	C76.473892,401.497833 63.263065,389.207886 47.228344,387.434906 
	C44.197018,387.099731 41.303898,388.248962 38.553558,389.298370 
	C35.451893,390.481842 33.416924,389.745270 31.108999,387.436981 
	C21.337282,377.663635 12.052477,367.390991 1.292628,358.161621 
	C1.000000,356.611115 1.000000,355.222198 1.000000,353.416656 
M330.589355,247.093918 
	C336.700439,240.951172 342.793732,234.790588 348.925751,228.668823 
	C374.400696,203.236633 399.901306,177.830124 425.361786,152.383499 
	C433.854065,143.895905 434.997650,135.608261 426.889160,126.997894 
	C410.109985,109.180222 392.927399,91.692886 375.103821,74.927536 
	C365.002686,65.426094 357.322052,66.693535 347.539978,76.604012 
	C340.399231,83.838501 333.143738,90.959633 325.957733,98.149620 
	C301.336426,122.784523 276.689514,147.394012 252.125748,172.086166 
	C243.892197,180.362762 244.131012,189.655594 252.345413,197.847656 
	C268.860229,214.317566 285.612640,230.564728 301.676910,247.464722 
	C310.362366,256.602051 322.226532,257.344757 330.589355,247.093918 
M68.639023,363.123138 
	C70.084511,369.298004 73.394806,374.289581 77.887810,378.734680 
	C93.043564,393.728882 108.001648,408.922913 123.158569,423.915924 
	C133.019791,433.670502 143.537491,435.729797 153.941376,423.947266 
	C159.224167,417.964508 165.226974,412.623749 170.750015,406.845337 
	C177.472961,399.811462 178.115463,391.174072 171.750259,384.004242 
	C155.269241,365.440002 137.267807,348.322906 119.412720,331.122742 
	C109.334106,321.413818 101.429031,322.587891 91.481888,332.663513 
	C86.450592,337.759796 81.497421,342.948181 76.230858,347.792664 
	C71.861938,351.811401 69.176178,356.509064 68.639023,363.123138 
M290.098755,287.531097 
	C296.150238,278.740051 295.762604,271.304993 288.392883,263.858856 
	C271.281403,246.569778 254.102127,229.346252 236.804947,212.243179 
	C229.293335,204.815857 218.985779,205.121857 211.509933,212.597702 
	C205.148438,218.959229 198.805313,225.339249 192.478714,231.735504 
	C185.099045,239.196487 184.971466,248.569412 192.414230,256.072357 
	C209.894775,273.694214 227.445267,291.247345 245.058426,308.736664 
	C252.001999,315.631409 262.245728,315.450287 269.130829,308.573944 
	C275.967224,301.746246 282.788300,294.903198 290.098755,287.531097 
M145.792923,278.305145 
	C141.333496,282.789093 136.730057,287.140411 132.449020,291.788635 
	C126.301216,298.463684 126.448875,307.986450 132.671448,314.223846 
	C150.531677,332.126556 168.404572,350.016907 186.349091,367.834991 
	C193.399597,374.835815 202.738708,374.814026 209.879807,367.838684 
	C216.308212,361.559479 222.634827,355.172241 228.883087,348.713440 
	C237.219254,340.096436 237.409012,330.949341 229.045364,322.460083 
	C212.342026,305.505829 195.530457,288.654541 178.547455,271.980896 
	C169.462601,263.061523 160.668594,263.447235 151.591797,272.502655 
	C149.824387,274.265900 148.067795,276.039978 145.792923,278.305145 
M39.015640,363.533997 
	C40.011532,363.538574 41.108822,363.820282 41.985645,363.499451 
	C45.650669,362.158325 48.320927,359.719482 48.564938,355.623810 
	C48.823513,351.283691 45.827385,348.798706 42.294525,347.629303 
	C38.537914,346.385742 35.600567,348.443726 33.599552,351.743164 
	C30.897120,356.199158 32.078720,359.138458 39.015640,363.533997 
M351.972748,33.334751 
	C351.312836,33.834644 350.581390,34.263718 350.004700,34.846039 
	C346.532318,38.352329 346.346954,41.814693 349.391815,45.351536 
	C352.590424,49.066910 355.924316,49.603081 359.883545,46.825050 
	C363.008392,44.632458 364.598877,41.628674 363.187073,37.816967 
	C361.740265,33.910778 357.572266,32.102795 351.972748,33.334751 
z"/>
<path fill="#000000" opacity="1.000000" stroke="none" 
	d="
M156.428467,513.000000 
	C153.768829,508.781921 149.605545,506.348022 146.574661,502.854553 
	C144.635254,500.619141 144.645111,499.124634 146.756592,497.018005 
	C150.493195,493.289886 153.939148,489.270477 158.520447,484.265472 
	C163.210175,489.379395 167.069809,493.638641 170.989914,497.841431 
	C172.934708,499.926453 171.578339,501.251160 170.226715,502.893555 
	C167.538971,506.159485 163.320023,508.096069 161.955444,512.729919 
	C160.285645,513.000000 158.571289,513.000000 156.428467,513.000000 
z"/>
<path fill="#000000" opacity="1.000000" stroke="none" 
	d="
M513.000000,160.600006 
	C508.906769,163.383072 506.023987,167.106339 502.725647,170.359177 
	C501.061340,172.000504 499.631378,172.694458 497.698730,170.751297 
	C493.733917,166.764999 489.674561,162.872757 485.003754,158.305939 
	C489.543213,154.009995 493.681915,150.202118 497.685791,146.257416 
	C499.628632,144.343246 501.165985,144.921890 502.770050,146.559296 
	C506.023926,149.880798 509.280212,153.199921 512.767761,156.760025 
	C513.000000,158.066666 513.000000,159.133347 513.000000,160.600006 
z"/>
<path fill="#000000" opacity="1.000000" stroke="none" 
	d="
M323.536530,349.536560 
	C278.644928,394.437622 233.955688,439.041351 189.443192,483.820770 
	C185.767242,487.518768 183.640594,487.421265 180.326904,483.705627 
	C177.269791,480.277649 173.488785,477.495300 170.641815,474.973541 
	C272.374817,373.129028 373.097443,272.296021 474.569366,170.712891 
	C478.288208,174.683548 482.294708,178.881348 486.205292,183.166733 
	C488.558777,185.745819 485.900574,187.059555 484.531952,188.437531 
	C470.326721,202.739670 456.063324,216.984024 441.811127,231.239502 
	C402.470337,270.589264 363.127136,309.936615 323.536530,349.536560 
z"/>
<path fill="#000000" opacity="1.000000" stroke="none" 
	d="
M328.094849,202.123398 
	C326.327118,206.667068 329.414185,208.903610 331.794342,211.379745 
	C337.664368,217.486526 337.698334,217.712646 331.743439,223.647888 
	C327.495728,227.881577 323.142395,232.011551 318.969452,236.316971 
	C316.890686,238.461716 315.211029,238.485825 313.103027,236.371429 
	C296.984406,220.204025 280.827057,204.075150 264.643646,187.972565 
	C262.326141,185.666626 262.717224,183.915497 264.930817,181.709305 
	C296.088226,150.656357 327.201569,119.559097 358.256714,88.403900 
	C360.891296,85.760857 362.743317,85.346031 365.609436,88.258499 
	C381.037842,103.936417 396.587128,119.497063 412.241272,134.949722 
	C415.249969,137.919678 415.902069,140.136734 412.268250,142.939636 
	C410.303833,144.454865 408.661194,146.392242 406.901672,148.167236 
	C401.521729,153.594543 401.527069,153.599838 395.973694,148.051941 
	C390.154114,142.238129 386.634338,142.010727 382.288422,147.167877 
	C379.440094,150.547928 379.544830,154.098206 382.588928,157.354080 
	C389.844086,165.114044 389.844116,165.114059 382.336517,172.700867 
	C375.060638,180.053497 375.011597,180.104202 367.738434,173.071457 
	C364.556305,169.994492 361.118958,169.120453 357.494812,171.760361 
	C353.517548,174.657440 353.032898,179.008759 355.803040,183.138962 
	C356.264771,183.827408 356.827881,184.452148 357.378601,185.075897 
	C363.283691,191.763992 363.285522,191.762314 356.933838,198.259460 
	C356.817352,198.378632 356.703400,198.500320 356.586700,198.619232 
	C349.376434,205.965897 349.376373,205.965897 341.825592,199.240524 
	C336.801483,194.765610 333.098724,195.465775 328.094849,202.123398 
M301.403748,177.680832 
	C301.390991,182.219620 304.361633,184.623016 308.000549,186.141342 
	C311.374481,187.549179 313.658752,184.985428 315.749756,182.917297 
	C324.373016,174.388229 332.894073,165.755875 341.464722,157.173447 
	C342.662415,155.974106 343.510345,154.746719 343.686646,152.905106 
	C344.064026,148.963440 341.898041,146.531662 338.938324,144.832764 
	C335.136719,142.650665 331.768127,144.492264 329.074524,147.133682 
	C320.771484,155.275726 312.638550,163.591202 304.434509,171.834274 
	C302.995758,173.279846 301.969604,174.954071 301.403748,177.680832 
M365.255890,132.997787 
	C366.013641,132.361771 366.809601,131.765640 367.522430,131.082718 
	C370.371918,128.352783 371.287292,125.261208 368.729370,121.900475 
	C366.454498,118.911568 363.832031,116.626411 359.545654,118.229301 
	C355.881287,119.599594 353.324249,123.431892 354.096863,126.915833 
	C355.134705,131.595642 358.819885,133.850433 365.255890,132.997787 
z"/>
<path fill="#000000" opacity="1.000000" stroke="none" 
	d="
M104.654457,342.351257 
	C107.232460,341.248444 108.291626,343.075012 109.526901,344.307983 
	C125.201042,359.953125 140.811996,375.661774 156.536499,391.256042 
	C159.141632,393.839600 159.844025,395.706696 156.720688,398.538177 
	C151.545135,403.230164 146.680038,408.274567 141.829712,413.310730 
	C139.714279,415.507172 138.147186,415.407806 136.034775,413.288666 
	C120.165466,397.368530 104.255981,381.487854 88.262375,365.692749 
	C85.510651,362.975189 85.452972,360.982513 88.331657,358.306793 
	C93.816177,353.209045 99.033997,347.824371 104.654457,342.351257 
z"/>
<path fill="#000000" opacity="1.000000" stroke="none" 
	d="
M275.161316,273.958771 
	C277.544128,275.998352 277.506927,277.719971 275.524261,279.653625 
	C270.044983,284.997528 264.616730,290.394287 259.211945,295.813690 
	C257.303680,297.727051 255.726852,297.103668 254.102859,295.463135 
	C251.175217,292.505646 248.205338,289.590027 245.265701,286.644318 
	C232.450516,273.802612 219.738525,260.855316 206.760239,248.180679 
	C203.390793,244.890045 203.554031,242.744537 206.897461,239.725937 
	C211.462692,235.604233 215.811844,231.214478 219.967331,226.677429 
	C222.871048,223.507080 224.940796,223.427902 228.061951,226.611313 
	C243.559418,242.417709 259.271088,258.014099 275.161316,273.958771 
z"/>
<path fill="#000000" opacity="1.000000" stroke="none" 
	d="
M168.297943,327.701965 
	C161.104370,320.497498 154.216705,313.485840 147.189270,306.617126 
	C144.437546,303.927582 144.448639,301.909210 147.369385,299.238831 
	C152.280853,294.748322 156.921402,289.950653 161.519821,285.133240 
	C163.790451,282.754456 165.592255,282.293884 168.134460,284.858948 
	C184.080276,300.948059 200.097321,316.967010 216.165695,332.933777 
	C218.729095,335.480957 218.216019,337.217163 215.777985,339.497070 
	C210.915146,344.044464 206.146820,348.719147 201.664612,353.637543 
	C198.977203,356.586456 197.024460,356.536255 194.316208,353.769470 
	C185.811371,345.080841 177.149170,336.546234 168.297943,327.701965 
z"/>
</svg>