<?xml version="1.0" encoding="UTF-8" standalone="no"?> <svg xmlns="http://www.w3.org/2000/svg" viewBox="0 0 64 64"><g id="outline"><path d="M17.85,2.29a1,1,0,0,0-1.41,0L5.12,13.61,2.29,16.44a1,1,0,0,0,0,1.41L8,23.51a1,1,0,0,0,.71.29,1,1,0,0,0,.7-.29l2.13-2.13L12.9,22.8l-2.12,2.12a1,1,0,0,0,0,1.41L22.09,37.65a1,1,0,0,0,.71.29,1,1,0,0,0,.71-.29l2.12-2.12L27,36.94l-2.12,2.12a1,1,0,0,0,0,1.42l19.8,19.8a1,1,0,0,0,1.41,0l2.12-2.13.71.71a1,1,0,0,0,.71.29,1,1,0,0,0,.71-.29L61.69,47.55a1,1,0,0,0,.29-.71,1,1,0,0,0-.29-.71ZM4.41,17.14l1.42-1.41.07.07,1.34,1.34L5.83,18.56Zm4.25,4.24L7.24,20l1.42-1.41L10.07,20Zm4.24,4.25,1.41-1.42,1.42,1.42L14.31,27Zm2.83,2.83L17.14,27l1.42,1.42-1.42,1.41Zm2.83,2.82L20,29.87l.73.73.68.68L20,32.7Zm4.24,4.25-1.42-1.42L22.8,32.7l1.41,1.41ZM27,39.77l1.42-1.41,1.41,1.41-1.41,1.41Zm2.83,2.83,1.41-1.42L32.7,42.6,31.28,44Zm2.83,2.83L34.11,44l1.42,1.42-1.42,1.41Zm2.83,2.82,1.41-1.41,1.42,1.41-1.42,1.42Zm2.83,2.83,1.41-1.41,1.41,1.41L39.77,52.5Zm2.82,2.83L42.6,52.5,44,53.91,42.6,55.33Zm4.25,4.24L44,56.74l1.42-1.41,1.41,1.41Zm4.24-1.41L26.33,33.41h0l-4-4L7.24,14.31l9.9-9.9L59.57,46.84Z"/><path d="M15.73,8.66l-3.54,3.53a1,1,0,0,0,0,1.42l.71.7-.71.71,1.42,1.41.7-.7,1.42,1.41-.71.71,1.42,1.41.7-.7L18.56,20l-.71.71,1.41,1.41.71-.71,1.41,1.42-.7.71,1.41,1.41.71-.71.71.71a1,1,0,0,0,1.41,0l3.54-3.54a1,1,0,0,0,0-1.41l-.71-.71.71-.7L27,17.14l-.71.71-1.41-1.42.71-.7-1.42-1.42-.7.71-1.42-1.41.71-.71-1.42-1.41-.7.7-1.42-1.41.71-.71L18.56,8.66l-.71.7-.71-.7A1,1,0,0,0,15.73,8.66Zm10.6,12L24.21,22.8l-9.9-9.9,2.13-2.12Z"/><path d="M38.77,39.77a1,1,0,0,0,.29.71l.71.7-.71.71,1.42,1.41.7-.7L42.6,44l-.71.71,1.42,1.41.7-.7,1.42,1.41-.71.71L46.13,49l.71-.71,1.42,1.42-.71.71L49,51.79l.71-.71.71.71a1,1,0,0,0,1.41,0l3.54-3.54a1,1,0,0,0,0-1.41l-.71-.71.71-.7L53.91,44l-.71.71-1.41-1.41.71-.71-1.42-1.42-.7.71L49,40.48l.71-.71-1.42-1.41-.7.7-1.42-1.41.71-.71-1.41-1.41-.71.7-.71-.7a1,1,0,0,0-1.41,0l-3.54,3.53A1,1,0,0,0,38.77,39.77Zm4.54-2.12,9.89,9.9-2.12,2.12-9.9-9.9Z"/><path d="M26,27a1,1,0,0,0,.29.71l.71.71-.71.7,1.42,1.42.71-.71.7.71a1,1,0,0,0,1.42,0L34.11,27a1,1,0,0,0,0-1.41l-.7-.71.7-.71L32.7,22.8l-.71.71-.71-.71a1,1,0,0,0-1.41,0l-3.54,3.53A1.05,1.05,0,0,0,26,27Zm4.54-2.12L32,26.33l-2.12,2.13L28.46,27Z"/><path d="M33.41,34.82l.7.71-.7.7,1.41,1.42.71-.71.7.71a1,1,0,0,0,.71.29,1,1,0,0,0,.71-.29l3.53-3.54a1,1,0,0,0,0-1.41l-.7-.71.7-.71-1.41-1.41-.71.71-.7-.71a1,1,0,0,0-1.42,0l-3.53,3.54A1,1,0,0,0,33.41,34.82ZM37.65,32l1.41,1.42-2.12,2.12-1.41-1.42Z"/></g></svg>