<?xml version="1.0" standalone="no"?>
<!DOCTYPE svg PUBLIC "-//W3C//DTD SVG 20010904//EN"
 "http://www.w3.org/TR/2001/REC-SVG-20010904/DTD/svg10.dtd">
<svg version="1.0" xmlns="http://www.w3.org/2000/svg"
 width="512.000000pt" height="512.000000pt" viewBox="0 0 512.000000 512.000000"
 preserveAspectRatio="xMidYMid meet">

<g transform="translate(0.000000,512.000000) scale(0.100000,-0.100000)"
fill="#000000" stroke="none">
<path d="M900 4695 l215 -215 827 0 828 0 0 215 0 215 -1042 0 -1043 0 215
-215z"/>
<path d="M2990 4640 c0 -290 -4 -321 -51 -354 -21 -14 -100 -16 -819 -16
l-795 0 121 -122 c67 -68 129 -134 138 -148 14 -22 16 -82 16 -583 0 -487 -2
-562 -16 -588 -30 -59 -31 -59 -619 -59 l-535 0 0 -1243 c0 -1133 1 -1245 16
-1266 38 -54 -77 -51 2114 -51 2191 0 2076 -3 2114 51 15 22 16 211 16 2299 0
2088 -1 2277 -16 2299 -37 52 -23 51 -884 51 l-800 0 0 -270z m370 -177 c16
-9 33 -27 39 -40 8 -17 11 -280 11 -859 l0 -836 -29 -29 c-49 -49 -134 -36
-166 25 -15 28 -16 107 -13 862 3 816 3 832 23 854 37 42 89 51 135 23z m320
0 c16 -9 33 -27 39 -40 8 -17 11 -280 11 -859 l0 -836 -29 -29 c-49 -49 -134
-36 -166 25 -15 28 -16 107 -13 862 3 816 3 832 23 854 37 42 89 51 135 23z
m320 0 c16 -9 33 -27 39 -40 8 -17 11 -280 11 -859 l0 -836 -29 -29 c-49 -49
-134 -36 -166 25 -15 28 -16 107 -13 862 3 816 3 832 23 854 37 42 89 51 135
23z m320 0 c16 -9 33 -27 39 -40 8 -17 11 -280 11 -859 l0 -836 -29 -29 c-49
-49 -134 -36 -166 25 -15 28 -16 107 -13 862 3 816 3 832 23 854 37 42 89 51
135 23z m-1497 -424 c57 -26 57 -27 57 -519 0 -492 0 -493 -57 -519 -16 -7
-174 -11 -481 -11 -507 0 -490 -2 -518 66 -21 49 -21 879 0 928 28 68 11 66
518 66 307 0 465 -4 481 -11z m0 -1600 c53 -24 57 -47 57 -304 0 -264 -4 -285
-65 -311 -51 -21 -1949 -21 -1999 0 -65 27 -66 33 -66 314 l0 254 29 29 29 29
996 0 c694 0 1002 -3 1019 -11z m1518 -18 l29 -29 0 -472 0 -472 -29 -29 -29
-29 -472 0 -472 0 -29 29 -29 29 0 472 0 472 29 29 29 29 472 0 472 0 29 -29z
m-1497 -850 c51 -48 40 -142 -20 -170 -18 -8 -308 -11 -1020 -11 l-996 0 -29
29 c-47 47 -37 129 19 164 25 15 108 16 1024 14 l996 -2 26 -24z m-21 -412
c53 -24 57 -47 57 -304 0 -264 -4 -285 -65 -311 -51 -21 -1949 -21 -1999 0
-65 27 -66 33 -66 314 l0 254 29 29 29 29 996 0 c694 0 1002 -3 1019 -11z
m760 -9 c38 -30 52 -80 33 -123 -15 -37 -59 -67 -96 -67 -37 0 -81 30 -96 67
-29 68 21 143 96 143 22 0 48 -8 63 -20z m320 0 c38 -30 52 -80 33 -123 -15
-37 -59 -67 -96 -67 -37 0 -81 30 -96 67 -29 68 21 143 96 143 22 0 48 -8 63
-20z m320 0 c38 -30 52 -80 33 -123 -15 -37 -59 -67 -96 -67 -37 0 -81 30 -96
67 -29 68 21 143 96 143 22 0 48 -8 63 -20z m-559 -414 c43 -18 66 -51 66 -96
0 -82 -53 -110 -210 -110 -157 0 -210 28 -210 110 0 44 23 78 64 96 43 18 245
19 290 0z m640 0 c43 -18 66 -51 66 -96 0 -82 -53 -110 -210 -110 -157 0 -210
28 -210 110 0 44 23 78 64 96 43 18 245 19 290 0z"/>
<path d="M2030 3520 l0 -320 320 0 320 0 0 320 0 320 -320 0 -320 0 0 -320z"/>
<path d="M960 2135 l0 -105 855 0 855 0 0 105 0 105 -855 0 -855 0 0 -105z"/>
<path d="M3520 1920 l0 -320 320 0 320 0 0 320 0 320 -320 0 -320 0 0 -320z"/>
<path d="M960 855 l0 -105 855 0 855 0 0 105 0 105 -855 0 -855 0 0 -105z"/>
<path d="M430 3915 l0 -925 265 0 265 0 0 668 0 667 -258 258 c-141 141 -260
257 -265 257 -4 0 -7 -416 -7 -925z"/>
<path d="M1170 3552 l0 -562 110 0 110 0 0 453 0 452 -110 110 -110 110 0
-563z"/>
</g>
</svg>
